<svg width="1024" height="1024" viewBox="0 0 1024 1024" fill="none" xmlns="http://www.w3.org/2000/svg">
<g clip-path="url(#clip0_1_2)">
<path d="M286.587 402.297C283.154 400.752 279.41 399.849 275.579 399.641C271.748 399.433 267.91 399.925 264.296 401.087C260.682 402.25 257.366 404.059 254.549 406.405C251.732 408.751 249.472 411.586 247.904 414.739L9.37928 896.144C-28.564 972.743 55.7418 1052.16 134.643 1014.22L470.501 852.827C496.669 840.282 527.388 840.282 553.499 852.827L889.357 1014.22C968.258 1052.16 1052.56 972.743 1014.62 896.144L925.195 715.707C914.478 694.043 895.739 676.398 872.177 665.785L286.587 402.297Z" fill="#572ADB"/>
<path d="M319.183 331.075C312.633 328.134 307.594 323.034 305.115 316.836C302.635 310.637 302.907 303.816 305.872 297.793L428.235 50.844C461.798 -16.948 562.202 -16.948 595.765 50.844L821.491 506.443C823.859 511.259 824.52 516.615 823.383 521.781C822.245 526.947 819.365 531.672 815.136 535.311C810.906 538.95 805.532 541.327 799.747 542.117C793.962 542.906 788.047 542.071 782.808 539.724L319.183 331.075Z" fill="#B188FF"/>
</g>
<defs>
<clipPath id="clip0_1_2">
<rect width="1024" height="1024" fill="white"/>
</clipPath>
</defs>
</svg>
